<mxfile host="app.diagrams.net" agent="Mozilla/5.0 (Windows NT 10.0; Win64; x64) AppleWebKit/537.36 (KHTML, like Gecko) Chrome/127.0.0.0 Safari/537.36" version="24.7.5">
  <diagram name="Página-1" id="CXguOitfeaKNkY0QeDL3">
    <mxGraphModel dx="2074" dy="772" grid="1" gridSize="10" guides="1" tooltips="1" connect="1" arrows="1" fold="1" page="1" pageScale="1" pageWidth="827" pageHeight="1169" math="0" shadow="0">
      <root>
        <mxCell id="0" />
        <mxCell id="1" parent="0" />
        <mxCell id="jpuAtupV8QjUtq0ttoyK-11" style="edgeStyle=orthogonalEdgeStyle;rounded=0;orthogonalLoop=1;jettySize=auto;html=1;exitX=1;exitY=0.5;exitDx=0;exitDy=0;entryX=0;entryY=0.5;entryDx=0;entryDy=0;" edge="1" parent="1" source="jpuAtupV8QjUtq0ttoyK-1" target="jpuAtupV8QjUtq0ttoyK-7">
          <mxGeometry relative="1" as="geometry" />
        </mxCell>
        <mxCell id="jpuAtupV8QjUtq0ttoyK-1" value="Usuário" style="swimlane;fontStyle=1;align=center;verticalAlign=top;childLayout=stackLayout;horizontal=1;startSize=26;horizontalStack=0;resizeParent=1;resizeParentMax=0;resizeLast=0;collapsible=1;marginBottom=0;whiteSpace=wrap;html=1;" vertex="1" collapsed="1" parent="1">
          <mxGeometry x="70" y="100" width="80" height="30" as="geometry">
            <mxRectangle x="70" y="100" width="160" height="98" as="alternateBounds" />
          </mxGeometry>
        </mxCell>
        <mxCell id="jpuAtupV8QjUtq0ttoyK-2" value="+ nome: string&lt;div&gt;+ email: string&lt;/div&gt;&lt;div&gt;+ senha: string&lt;/div&gt;&lt;div&gt;+ tipo: number&lt;/div&gt;" style="text;strokeColor=none;fillColor=none;align=left;verticalAlign=top;spacingLeft=4;spacingRight=4;overflow=hidden;rotatable=0;points=[[0,0.5],[1,0.5]];portConstraint=eastwest;whiteSpace=wrap;html=1;" vertex="1" parent="jpuAtupV8QjUtq0ttoyK-1">
          <mxGeometry y="26" width="160" height="64" as="geometry" />
        </mxCell>
        <mxCell id="jpuAtupV8QjUtq0ttoyK-3" value="" style="line;strokeWidth=1;fillColor=none;align=left;verticalAlign=middle;spacingTop=-1;spacingLeft=3;spacingRight=3;rotatable=0;labelPosition=right;points=[];portConstraint=eastwest;strokeColor=inherit;" vertex="1" parent="jpuAtupV8QjUtq0ttoyK-1">
          <mxGeometry y="90" width="160" height="8" as="geometry" />
        </mxCell>
        <mxCell id="jpuAtupV8QjUtq0ttoyK-7" value="Alerta" style="swimlane;fontStyle=1;align=center;verticalAlign=top;childLayout=stackLayout;horizontal=1;startSize=26;horizontalStack=0;resizeParent=1;resizeParentMax=0;resizeLast=0;collapsible=1;marginBottom=0;whiteSpace=wrap;html=1;" vertex="1" collapsed="1" parent="1">
          <mxGeometry x="280" y="100" width="70" height="30" as="geometry">
            <mxRectangle x="280" y="80" width="160" height="118" as="alternateBounds" />
          </mxGeometry>
        </mxCell>
        <mxCell id="jpuAtupV8QjUtq0ttoyK-8" value="+ nome: string&lt;div&gt;+ painel: number&lt;/div&gt;&lt;div&gt;+ indicador: number&lt;/div&gt;&lt;div&gt;+ periodicidade: number&lt;/div&gt;&lt;div&gt;+ condicao: string&lt;/div&gt;" style="text;strokeColor=none;fillColor=none;align=left;verticalAlign=top;spacingLeft=4;spacingRight=4;overflow=hidden;rotatable=0;points=[[0,0.5],[1,0.5]];portConstraint=eastwest;whiteSpace=wrap;html=1;" vertex="1" parent="jpuAtupV8QjUtq0ttoyK-7">
          <mxGeometry y="26" width="160" height="84" as="geometry" />
        </mxCell>
        <mxCell id="jpuAtupV8QjUtq0ttoyK-9" value="" style="line;strokeWidth=1;fillColor=none;align=left;verticalAlign=middle;spacingTop=-1;spacingLeft=3;spacingRight=3;rotatable=0;labelPosition=right;points=[];portConstraint=eastwest;strokeColor=inherit;" vertex="1" parent="jpuAtupV8QjUtq0ttoyK-7">
          <mxGeometry y="110" width="160" height="8" as="geometry" />
        </mxCell>
      </root>
    </mxGraphModel>
  </diagram>
</mxfile>
